<?xml version="1.0"?>
<svg xmlns="http://www.w3.org/2000/svg" xmlns:xlink="http://www.w3.org/1999/xlink" xmlns:svgjs="http://svgjs.com/svgjs" version="1.1" width="512" height="512" x="0" y="0" viewBox="0 0 512.053 512.053" style="enable-background:new 0 0 512 512" xml:space="preserve"><g><g xmlns="http://www.w3.org/2000/svg"><g><path d="m498.719 70.031c-1.264-7.168-5.244-13.416-11.207-17.591-12.309-8.619-29.334-5.616-37.954 6.692-3.81 5.438-10.925 7.312-16.916 4.447l-119.309-57.003c-29.565-14.125-64.666-4.896-83.46 21.944l-45.625 65.158c-7.254 10.36-6.274 24.059 1.555 33.277l-169.342 300.129c-6.926 12.276-3.442 27.631 8.104 35.715l65.818 46.087c3.006 2.104 6.473 3.168 9.958 3.168 2.929 0 5.871-.751 8.561-2.266 5.863-3.3 9.232-9.511 8.793-16.209-.1-1.522-.258-2.99-.41-4.409-.712-6.619-.915-10.268 2.739-14.437 3.652-4.169 7.296-4.448 13.953-4.611 7.051-.173 16.708-.409 24.866-9.722 8.159-9.311 7.125-18.914 6.37-25.927-.713-6.619-.915-10.268 2.736-14.436 3.652-4.167 7.295-4.446 13.951-4.609 7.051-.173 16.708-.409 24.866-9.72 8.159-9.312 7.125-18.915 6.369-25.927-.713-6.619-.915-10.268 2.737-14.436 3.651-4.168 7.294-4.446 13.95-4.609 7.051-.172 16.707-.408 24.865-9.719 8.158-9.31 7.123-18.913 6.367-25.926-.713-6.618-.916-10.266 2.735-14.433 3.651-4.166 7.293-4.444 13.948-4.606 7.051-.172 16.707-.407 24.865-9.718 8.159-9.311 7.124-18.914 6.369-25.926-.713-6.619-.915-10.268 2.736-14.436 3.652-4.167 7.295-4.445 13.95-4.608 7.051-.172 16.707-.408 24.866-9.719l50.81-57.988c18.495-2.059 35.865-11.85 47.248-28.106l45.625-65.158c4.174-5.962 5.777-13.193 4.513-20.362zm-159.478 161.731c-3.652 4.167-7.295 4.445-13.95 4.608-7.051.172-16.707.408-24.866 9.719s-7.124 18.915-6.368 25.927c.713 6.619.915 10.267-2.737 14.435-3.65 4.166-7.293 4.445-13.948 4.607-7.05.172-16.706.406-24.864 9.717-8.158 9.31-7.123 18.913-6.367 25.925.713 6.619.916 10.267-2.735 14.434-3.652 4.167-7.294 4.445-13.95 4.608-7.051.172-16.707.408-24.866 9.72-8.158 9.311-7.124 18.914-6.369 25.927.713 6.619.915 10.267-2.737 14.435s-7.295 4.447-13.951 4.61c-7.05.172-16.707.408-24.866 9.72-8.158 9.311-7.124 18.914-6.369 25.927.713 6.619.915 10.268-2.737 14.436-3.653 4.169-7.296 4.448-13.953 4.611-7.051.173-16.708.409-24.866 9.721-8.16 9.312-7.126 18.915-6.371 25.928.143 1.323.277 2.574.356 3.784.078 1.188-.6 1.829-1.183 2.157-.495.278-1.485.633-2.558-.118l-31.099-21.776 127.7-145.738c2.73-3.115 2.417-7.854-.698-10.583s-7.854-2.417-10.584.698l-128.777 146.967-22.36-15.656c-5.191-3.635-6.757-10.537-3.644-16.057l168.802-299.17c11.05 3.5 23.575-.359 30.569-10.345 3.809-5.439 10.922-7.313 16.916-4.447l79.377 37.925-121.023 138.117c-2.729 3.115-2.417 7.854.698 10.583 1.423 1.247 3.186 1.859 4.94 1.859 2.086 0 4.161-.865 5.644-2.558l123.798-141.285 25.874 12.362c5.483 2.62 11.157 4.415 16.88 5.465zm142.677-149.971-45.625 65.158c-14.572 20.81-41.785 27.965-64.707 17.013l-119.31-57.004c-3.976-1.899-8.184-2.811-12.337-2.811-9.047 0-17.828 4.327-23.333 12.189-3.875 5.533-11.529 6.885-17.063 3.009-5.534-3.875-6.883-11.529-3.009-17.063l45.625-65.158c14.572-20.81 41.785-27.965 64.707-17.013l119.31 57.004c12.637 6.037 27.638 2.092 35.67-9.379 1.877-2.681 4.686-4.47 7.909-5.038 3.223-.569 6.473.152 9.154 2.029 5.534 3.875 6.884 11.529 3.009 17.064z" fill="#ffffff" data-original="#000000" style=""/><path d="m405.568 94.424-25.583-12.224c-3.739-1.785-8.215-.204-10 3.534-1.786 3.737-.204 8.215 3.534 10.001l25.583 12.224c3.042 1.453 5.278 4.156 6.135 7.416.857 3.261.24 6.714-1.694 9.476-3.223 4.602-9.242 6.182-14.31 3.762l-109.88-52.5c-3.042-1.453-5.278-4.156-6.135-7.416-.857-3.261-.24-6.714 1.693-9.476 3.222-4.603 9.24-6.183 14.31-3.762l57.217 27.338c3.738 1.783 8.215.203 10-3.534s.204-8.215-3.534-10.001l-57.218-27.338c-11.714-5.595-25.619-1.938-33.063 8.694-4.468 6.38-5.894 14.359-3.914 21.892s7.147 13.779 14.175 17.138l109.881 52.5c3.685 1.761 7.585 2.605 11.435 2.604 8.386 0 16.525-4.011 21.628-11.298 4.468-6.381 5.894-14.36 3.914-21.894-1.98-7.531-7.146-13.777-14.174-17.136z" fill="#ffffff" data-original="#000000" style=""/></g></g></g></svg>
