<?xml version="1.0"?>
<svg xmlns="http://www.w3.org/2000/svg" xmlns:xlink="http://www.w3.org/1999/xlink" xmlns:svgjs="http://svgjs.com/svgjs" version="1.1" width="512" height="512" x="0" y="0" viewBox="0 0 512 512" style="enable-background:new 0 0 512 512" xml:space="preserve"><g>
<g xmlns="http://www.w3.org/2000/svg">
	<g>
		<path d="M511.771,9.784c-0.054-0.596-0.173-1.185-0.354-1.756c-0.229-0.556-0.518-1.086-0.862-1.579    c-0.16-0.351-0.346-0.69-0.554-1.015c-0.08-0.096-0.198-0.133-0.282-0.225c-0.427-0.423-0.897-0.8-1.404-1.123    c-0.394-0.321-0.816-0.605-1.26-0.849c-0.472-0.183-0.961-0.324-1.458-0.419c-0.573-0.182-1.164-0.301-1.762-0.356    c-0.128-0.006-0.237-0.074-0.367-0.074c-0.391,0.049-0.777,0.127-1.156,0.233c-0.589,0.054-1.17,0.171-1.733,0.35    C500.021,3.2,499.493,3.488,499,3.831c-0.355,0.161-0.697,0.348-1.025,0.558L5.292,417.785l-2.3,1.963    c-0.09,0.076-0.123,0.186-0.208,0.265c-0.419,0.431-0.79,0.905-1.108,1.415c-0.321,0.394-0.605,0.815-0.85,1.26    c-0.173,0.464-0.306,0.942-0.397,1.429c-0.186,0.584-0.307,1.187-0.362,1.797C0.06,426.029,0,426.124,0,426.24v74.837    c-0.001,2.263,0.898,4.434,2.499,6.035c1.6,1.6,3.771,2.499,6.035,2.499h494.933c2.263,0.001,4.434-0.898,6.035-2.499    c1.6-1.6,2.499-3.771,2.499-6.035V10.923C511.951,10.538,511.875,10.158,511.771,9.784z M494.933,492.544H17.067v-25.6h477.867    V492.544z M494.933,449.877H60.046l20.34-17.067h414.548V449.877z M100.723,415.744l146.744-123.139v123.139H100.723z     M264.533,415.744v-137.46l12.565-10.543l4.502,4.503v143.5H264.533z M460.8,403.148v12.596h-11.567L290.219,256.73l13.139-11.024    L460.8,403.148z M316.479,234.694L460.8,113.589v265.426L316.479,234.694z M425.1,415.744H298.667V289.31L425.1,415.744z     M494.933,415.744h-17.067V99.267l17.067-14.321V415.744z M494.933,62.663L250.006,268.198l-0.052,0.044L71.267,418.191    l-0.097,0.082l-37.661,31.604H17.067v-19.656L494.933,29.225V62.663z" fill="#ffffff" data-original="#000000" style=""/>
	</g>
</g>
<g xmlns="http://www.w3.org/2000/svg">
</g>
<g xmlns="http://www.w3.org/2000/svg">
</g>
<g xmlns="http://www.w3.org/2000/svg">
</g>
<g xmlns="http://www.w3.org/2000/svg">
</g>
<g xmlns="http://www.w3.org/2000/svg">
</g>
<g xmlns="http://www.w3.org/2000/svg">
</g>
<g xmlns="http://www.w3.org/2000/svg">
</g>
<g xmlns="http://www.w3.org/2000/svg">
</g>
<g xmlns="http://www.w3.org/2000/svg">
</g>
<g xmlns="http://www.w3.org/2000/svg">
</g>
<g xmlns="http://www.w3.org/2000/svg">
</g>
<g xmlns="http://www.w3.org/2000/svg">
</g>
<g xmlns="http://www.w3.org/2000/svg">
</g>
<g xmlns="http://www.w3.org/2000/svg">
</g>
<g xmlns="http://www.w3.org/2000/svg">
</g>
</g></svg>
