<?xml version="1.0"?>
<svg xmlns="http://www.w3.org/2000/svg" xmlns:xlink="http://www.w3.org/1999/xlink" xmlns:svgjs="http://svgjs.com/svgjs" version="1.1" width="512" height="512" x="0" y="0" viewBox="0 0 512 512" style="enable-background:new 0 0 512 512" xml:space="preserve"><g>
<g xmlns="http://www.w3.org/2000/svg">
	<g>
		<g>
			<path d="M510.383,310.737L288.517,3.537C286.914,1.315,284.34-0.001,281.6,0h-51.2c-2.74-0.001-5.314,1.315-6.917,3.537     L1.617,310.737C0.566,312.191,0,313.94,0,315.733v187.733c-0.001,2.263,0.898,4.434,2.499,6.035c1.6,1.6,3.771,2.499,6.035,2.499     h494.933c2.263,0.001,4.434-0.898,6.035-2.499c1.6-1.6,2.499-3.771,2.499-6.035V315.733     C512,313.94,511.434,312.191,510.383,310.737z M17.067,358.4h17.067v102.4H17.067V358.4z M494.933,494.933H17.067v-17.067     h477.867V494.933z M223.32,460.8h-34.158L51.2,370.843V358.4h15.135L223.32,460.8z M97.562,358.4H230.4v86.65L97.562,358.4z      M157.914,460.8H51.2v-69.582L157.914,460.8z M247.467,460.8V358.4h17.067v102.4H247.467z M322.838,460.8H288.68l156.985-102.4     H460.8v12.443L322.838,460.8z M460.8,391.218V460.8H354.086L460.8,391.218z M281.6,445.05V358.4h132.838L281.6,445.05z      M494.933,460.8h-17.067V358.4h17.067V460.8z M494.933,341.333H17.067v-22.842l217.7-301.425h42.467l217.7,301.425V341.333z" fill="#ffffff" data-original="#000000" style=""/>
			<path d="M244.385,48.527c-0.173-0.148-0.265-0.354-0.452-0.49c-0.272-0.143-0.552-0.27-0.838-0.38     c-0.998-0.597-2.12-0.959-3.279-1.058c-0.291-0.076-0.586-0.136-0.883-0.178c-0.227,0-0.417,0.111-0.639,0.129     c-2.234,0.223-4.302,1.279-5.793,2.958c-0.146,0.173-0.351,0.263-0.485,0.451L43.683,310.737     c-1.878,2.597-2.141,6.028-0.682,8.881c1.459,2.854,4.394,4.649,7.599,4.648h188.333c2.263,0.001,4.434-0.898,6.035-2.499     c1.6-1.6,2.499-3.771,2.499-6.035V54.954c0-0.233-0.114-0.428-0.132-0.656C247.107,52.074,246.055,50.015,244.385,48.527z      M230.4,307.2H67.292L230.4,81.344V307.2z" fill="#ffffff" data-original="#000000" style=""/>
			<path d="M273.067,46.421c-0.297,0.043-0.591,0.102-0.882,0.178c-1.158,0.097-2.278,0.458-3.275,1.055     c-0.288,0.111-0.57,0.24-0.843,0.384c-0.188,0.136-0.279,0.341-0.452,0.49c-1.67,1.488-2.722,3.547-2.949,5.772     c-0.018,0.228-0.132,0.423-0.132,0.655v260.779c-0.001,2.263,0.898,4.434,2.499,6.035c1.601,1.6,3.771,2.499,6.035,2.499H461.4     c3.205,0.001,6.14-1.794,7.599-4.648c1.459-2.854,1.195-6.284-0.682-8.881L279.983,49.958c-0.134-0.186-0.338-0.276-0.483-0.447     c-1.491-1.68-3.56-2.738-5.796-2.961C273.482,46.533,273.293,46.421,273.067,46.421z M281.6,81.344L444.708,307.2H281.6V81.344z" fill="#ffffff" data-original="#000000" style=""/>
		</g>
	</g>
</g>
<g xmlns="http://www.w3.org/2000/svg">
</g>
<g xmlns="http://www.w3.org/2000/svg">
</g>
<g xmlns="http://www.w3.org/2000/svg">
</g>
<g xmlns="http://www.w3.org/2000/svg">
</g>
<g xmlns="http://www.w3.org/2000/svg">
</g>
<g xmlns="http://www.w3.org/2000/svg">
</g>
<g xmlns="http://www.w3.org/2000/svg">
</g>
<g xmlns="http://www.w3.org/2000/svg">
</g>
<g xmlns="http://www.w3.org/2000/svg">
</g>
<g xmlns="http://www.w3.org/2000/svg">
</g>
<g xmlns="http://www.w3.org/2000/svg">
</g>
<g xmlns="http://www.w3.org/2000/svg">
</g>
<g xmlns="http://www.w3.org/2000/svg">
</g>
<g xmlns="http://www.w3.org/2000/svg">
</g>
<g xmlns="http://www.w3.org/2000/svg">
</g>
</g></svg>
