<?xml version="1.0"?>
<svg xmlns="http://www.w3.org/2000/svg" xmlns:xlink="http://www.w3.org/1999/xlink" xmlns:svgjs="http://svgjs.com/svgjs" version="1.1" width="512" height="512" x="0" y="0" viewBox="0 0 511.999 511.999" style="enable-background:new 0 0 512 512" xml:space="preserve"><g>
<g xmlns="http://www.w3.org/2000/svg">
	<g>
		<path d="M214.155,407.934c-1.87-1.861-4.44-2.93-7.07-2.93c-2.64,0-5.22,1.07-7.08,2.93c-1.859,1.86-2.92,4.44-2.92,7.07    s1.061,5.21,2.92,7.07c1.87,1.86,4.44,2.93,7.08,2.93c2.62,0,5.2-1.07,7.07-2.93c1.859-1.86,2.92-4.44,2.92-7.07    S216.014,409.794,214.155,407.934z" fill="#ffffff" data-original="#000000" style=""/>
	</g>
</g>
<g xmlns="http://www.w3.org/2000/svg">
	<g>
		<path d="M141.948,405.004H75.12c-5.522,0-10,4.477-10,10c0,5.523,4.478,10,10,10h66.829c5.522,0,10-4.477,10-10    C151.948,409.481,147.471,405.004,141.948,405.004z" fill="#ffffff" data-original="#000000" style=""/>
	</g>
</g>
<g xmlns="http://www.w3.org/2000/svg">
	<g>
		<path d="M231.597,368.006h-75.338c-5.522,0-10,4.477-10,10c0,5.523,4.478,10,10,10h75.338c5.523,0,10-4.478,10-10    C241.597,372.482,237.119,368.006,231.597,368.006z" fill="#ffffff" data-original="#000000" style=""/>
	</g>
</g>
<g xmlns="http://www.w3.org/2000/svg">
	<g>
		<path d="M501.931,318.008H457.97v-1.587l24.283-24.282c1.875-1.875,2.929-4.419,2.929-7.071v-22.264c0-5.523-4.478-10-10-10    h-77.245c0.126-0.04,0.253-0.073,0.378-0.119l77.993-28.388c2.492-0.907,4.522-2.767,5.644-5.171    c1.12-2.404,1.24-5.154,0.333-7.646l-13.796-37.903c-1.218-3.346-4.123-5.792-7.628-6.422l-9.354-1.681l-1.936-5.317l5.043-3.716    c3.571-2.632,4.981-7.302,3.464-11.47l-32.367-88.927c-7.775-21.363-23.404-38.419-44.009-48.028    c-20.603-9.607-43.717-10.617-65.079-2.842l-28.549,10.391c-5.19,1.889-7.866,7.627-5.977,12.816l8.711,23.932    c1.889,5.189,7.626,7.863,12.815,5.977c12.505-4.551,26.378,1.92,30.93,14.422l9.021,24.784c1.354,3.721,1.179,7.746-0.495,11.333    c-1.673,3.588-4.644,6.311-8.364,7.665l-90.762,33.034c-1.796-1.437-3.773-2.672-5.911-3.669    c-7.02-3.273-14.895-3.618-22.173-0.968l-195.62,71.198c-15.025,5.469-22.801,22.143-17.331,37.168l16.717,45.931    c2.649,7.279,7.976,13.09,14.995,16.364c2.675,1.247,5.474,2.058,8.317,2.452H10.069c-5.522,0-10,4.477-10,10v119.994    c0,5.523,4.478,10,10,10h376.084l22.781,48.267c1.651,3.499,5.174,5.731,9.043,5.731c3.869,0,7.392-2.232,9.043-5.732    l22.78-48.266h52.131c5.522,0,10-4.477,10-10V328.008C511.93,322.485,507.453,318.008,501.931,318.008z M306.571,37.153    l-2.261-6.213l19.152-6.972c16.343-5.949,34.024-5.177,49.788,2.174c15.763,7.351,27.72,20.399,33.668,36.742l29.809,81.896    l-5.043,3.716c-3.571,2.632-4.981,7.302-3.464,11.47l6.462,17.752c1.218,3.346,4.123,5.792,7.628,6.422l9.354,1.681l8.409,23.103    l-59.2,21.547l-8.409-23.103l6.086-7.301c2.28-2.735,2.934-6.477,1.715-9.823l-6.462-17.752c-1.696-4.662-6.56-7.375-11.412-6.374    l-17.65,3.634l-6.686-18.369l-7.599-20.878c4.58-3.402,8.271-7.908,10.748-13.223c3.932-8.43,4.344-17.886,1.162-26.626    l-9.021-24.784C346.199,46.239,326.476,34.739,306.571,37.153z M332.158,138.709l13.322,36.604l-77.423,28.18l-13.322-36.604    L332.158,138.709z M38.428,292.352l-3.933-10.805l42.726-15.551c5.19-1.889,7.866-7.627,5.977-12.816    c-1.889-5.19-7.627-7.865-12.815-5.977l-42.727,15.551l-5.945-16.332c-1.697-4.663,0.716-9.838,5.379-11.534l195.62-71.2    c2.26-0.823,4.703-0.716,6.882,0.3c2.179,1.016,3.832,2.82,4.654,5.078l0.076,0.208l9.643,26.494l-41.687,15.172    c-5.19,1.889-7.866,7.627-5.977,12.816c1.478,4.062,5.313,6.583,9.397,6.583c1.135,0,2.291-0.195,3.419-0.606l41.687-15.172    l0.159,0.438c0.822,2.259,0.716,4.702-0.301,6.881c-1.016,2.179-2.819,3.832-5.078,4.654L49.964,297.731    c-2.26,0.822-4.702,0.715-6.882-0.3C40.903,296.415,39.25,294.611,38.428,292.352z M20.068,338.006h89.895v0.001l-24.424,24.424    c-2.306,2.305-5.37,3.574-8.63,3.574H20.068V338.006z M377.983,405.004H336.64c-5.522,0-10,4.477-10,10c0,5.523,4.478,10,10,10    h41.343v12.999H20.068v-51.997H76.91c8.602,0,16.687-3.35,22.77-9.432l38.566-38.566h186.539    c-5.032,5.332-9.198,11.575-12.207,18.564l-9.457,21.958c-6.927,16.082-22.716,26.475-40.226,26.475h-16.81    c-5.522,0-10,4.477-10,10c0,5.523,4.478,10,10,10h16.81c25.506,0,48.506-15.137,58.594-38.563l9.456-21.958    c6.926-16.082,22.715-26.475,40.226-26.475h6.812V405.004z M377.983,318.006H134.11c-0.003,0-0.007,0-0.01,0H50.668    c2.07-0.275,4.126-0.751,6.136-1.482l195.619-71.2c7.279-2.649,13.09-7.975,16.363-14.994c0.997-2.138,1.718-4.355,2.17-6.61    l90.075-32.784l16.934-3.487l1.54,4.232l-6.086,7.301c-2.28,2.735-2.934,6.477-1.715,9.823l13.796,37.903    c1.097,3.016,3.496,5.18,6.331,6.096h-31.06c-5.522,0-10,4.477-10,10v22.264c0,2.652,1.054,5.196,2.929,7.071l24.283,24.282    V318.006z M440.9,305.208c-1.875,1.875-2.929,4.419-2.929,7.071v123.931l-19.994,42.362l-19.995-42.363v-123.93    c0-2.652-1.054-5.196-2.929-7.071l-24.283-24.282v-8.123h94.412v8.123L440.9,305.208z M491.931,438.002H457.97v-99.995h33.961    V438.002z" fill="#ffffff" data-original="#000000" style=""/>
	</g>
</g>
<g xmlns="http://www.w3.org/2000/svg">
	<g>
		<path d="M117.44,236.221c-1.86-1.87-4.44-2.93-7.07-2.93c-2.63,0-5.21,1.06-7.07,2.93c-1.859,1.86-2.93,4.43-2.93,7.07    c0,2.63,1.07,5.21,2.93,7.07c1.86,1.86,4.44,2.93,7.07,2.93c2.63,0,5.21-1.07,7.07-2.93c1.859-1.86,2.93-4.44,2.93-7.07    S119.3,238.081,117.44,236.221z" fill="#ffffff" data-original="#000000" style=""/>
	</g>
</g>
<g xmlns="http://www.w3.org/2000/svg">
	<g>
		<path d="M196.739,192.144c-1.889-5.189-7.627-7.866-12.815-5.977l-40.147,14.612c-5.19,1.889-7.866,7.627-5.977,12.816    c1.477,4.061,5.312,6.583,9.397,6.583c1.136,0,2.29-0.195,3.419-0.606l40.147-14.612    C195.952,203.072,198.628,197.334,196.739,192.144z" fill="#ffffff" data-original="#000000" style=""/>
	</g>
</g>
<g xmlns="http://www.w3.org/2000/svg">
</g>
<g xmlns="http://www.w3.org/2000/svg">
</g>
<g xmlns="http://www.w3.org/2000/svg">
</g>
<g xmlns="http://www.w3.org/2000/svg">
</g>
<g xmlns="http://www.w3.org/2000/svg">
</g>
<g xmlns="http://www.w3.org/2000/svg">
</g>
<g xmlns="http://www.w3.org/2000/svg">
</g>
<g xmlns="http://www.w3.org/2000/svg">
</g>
<g xmlns="http://www.w3.org/2000/svg">
</g>
<g xmlns="http://www.w3.org/2000/svg">
</g>
<g xmlns="http://www.w3.org/2000/svg">
</g>
<g xmlns="http://www.w3.org/2000/svg">
</g>
<g xmlns="http://www.w3.org/2000/svg">
</g>
<g xmlns="http://www.w3.org/2000/svg">
</g>
<g xmlns="http://www.w3.org/2000/svg">
</g>
</g></svg>
